<?xml version="1.0" standalone="no"?>
<!DOCTYPE svg PUBLIC "-//W3C//DTD SVG 20010904//EN"
 "http://www.w3.org/TR/2001/REC-SVG-20010904/DTD/svg10.dtd">
<svg version="1.0" xmlns="http://www.w3.org/2000/svg"
 width="222.000000pt" height="222.000000pt" viewBox="0 0 222.000000 222.000000"
 preserveAspectRatio="xMidYMid meet">
<metadata>
Created by potrace 1.14, written by Peter Selinger 2001-2017
</metadata>
<g transform="translate(0.000000,222.000000) scale(0.100000,-0.100000)"
fill="#000000" stroke="none">
<path d="M0 1110 l0 -1110 1110 0 1110 0 0 1110 0 1110 -1110 0 -1110 0 0
-1110z m1366 865 c105 -26 233 -83 311 -136 133 -92 273 -263 334 -408 93
-221 99 -513 15 -713 l-16 -38 -95 0 -96 0 17 32 c9 17 27 63 40 101 129 380
-66 806 -439 959 -224 91 -491 74 -691 -47 l-57 -34 7 61 c8 69 1 78 -60 78
-54 0 -36 18 67 68 157 77 254 100 433 101 109 1 148 -3 230 -24z m-717 -201
c2 -2 0 -58 -4 -126 l-7 -122 -31 34 -30 34 -60 -64 c-77 -84 -128 -172 -169
-290 -31 -90 -32 -102 -32 -240 0 -136 2 -151 30 -232 l30 -88 -92 0 -93 0
-15 53 c-69 241 -39 509 80 725 42 77 105 161 163 217 23 21 41 44 41 49 0 5
-12 23 -27 39 l-28 29 120 -7 c66 -4 122 -9 124 -11z m541 -484 l155 0 128
-240 c70 -132 127 -244 127 -250 0 -6 -28 -10 -65 -10 -57 0 -65 2 -65 19 0
28 -37 68 -74 81 -52 17 -102 -8 -124 -60 l-17 -40 -182 0 -183 0 0 249 0 250
53 4 c28 2 61 2 72 0 11 -1 90 -3 175 -3z m261 -23 c38 -32 264 -288 277 -314
17 -31 15 -85 -4 -111 -19 -27 -73 -57 -84 -45 -9 9 -260 481 -260 488 0 14
49 2 71 -18z m-591 -277 l0 -200 -37 0 c-35 0 -39 4 -55 40 -20 47 -68 73
-118 64 -34 -7 -80 -55 -80 -85 0 -16 -7 -19 -45 -19 -43 0 -45 1 -45 30 0 20
5 30 15 30 12 0 15 17 15 96 l0 96 46 74 46 74 129 0 129 0 0 -200z m-136
-141 c35 -28 36 -80 1 -114 -33 -33 -70 -32 -106 4 -31 32 -35 50 -17 84 26
50 77 61 122 26z m694 1 c33 -31 30 -92 -4 -119 -15 -12 -37 -21 -49 -21 -39
0 -75 37 -75 78 0 71 78 109 128 62z m-444 -386 c9 -3 16 -14 16 -24 0 -16 -8
-18 -60 -17 -69 2 -82 -8 -78 -63 4 -45 35 -62 96 -51 39 8 42 7 42 -14 0 -34
-73 -47 -139 -24 -39 14 -51 35 -51 94 0 54 13 83 43 95 26 10 108 13 131 4z
m289 -22 c17 -18 22 -34 22 -77 0 -79 -24 -100 -111 -100 -60 0 -68 3 -90 28
-18 21 -24 40 -24 76 0 76 34 103 123 98 43 -2 63 -9 80 -25z m271 22 c9 -3
16 -16 16 -28 0 -21 -4 -22 -65 -18 -53 4 -65 2 -65 -11 0 -16 29 -27 74 -27
36 0 66 -25 66 -55 0 -48 -67 -74 -154 -61 -38 6 -46 11 -46 28 0 19 4 20 53
15 54 -5 102 6 93 22 -3 4 -29 11 -58 13 -83 8 -111 63 -56 111 20 17 108 24
142 11z m-814 -24 c0 -18 -7 -20 -66 -20 -57 0 -65 -2 -62 -17 2 -14 15 -19
51 -21 39 -3 47 -6 47 -23 0 -16 -7 -19 -50 -19 -38 0 -50 -4 -50 -15 0 -12
14 -15 65 -15 58 0 65 -2 65 -20 0 -19 -7 -20 -95 -20 l-95 0 0 95 0 95 95 0
c88 0 95 -1 95 -20z m720 -365 c-3 -6 -60 -11 -136 -11 -73 -1 -136 -4 -140
-7 -5 -3 -120 -3 -257 0 -199 5 -247 9 -247 20 0 11 67 13 393 11 257 -2 390
-6 387 -13z"/>
<path d="M596 1108 c-20 -29 -36 -56 -36 -60 0 -5 36 -8 80 -8 l81 0 -3 58 -3
57 -42 3 c-40 3 -43 1 -77 -50z"/>
<path d="M648 829 c-26 -14 -23 -65 3 -79 16 -9 26 -8 45 5 29 18 31 46 6 68
-21 19 -30 20 -54 6z"/>
<path d="M1336 824 c-22 -22 -20 -50 6 -68 28 -20 33 -20 52 0 22 21 20 61 -3
74 -27 14 -37 13 -55 -6z"/>
<path d="M1122 408 c-17 -17 -15 -73 4 -89 19 -15 81 -16 97 0 15 15 12 82 -5
92 -20 13 -82 11 -96 -3z"/>
<path d="M1098 63 c6 -2 18 -2 25 0 6 3 1 5 -13 5 -14 0 -19 -2 -12 -5z"/>
</g>
</svg>
